<svg width="24" height="24" viewBox="0 0 24 24" fill="none" xmlns="http://www.w3.org/2000/svg">
<path d="M11.7314 3.6543C11.8282 3.46081 12.0818 3.43683 12.2178 3.58203L12.2686 3.6543L14.3291 7.77539C14.4947 8.10634 14.7926 8.34866 15.1445 8.44629L15.2988 8.47852L19.8545 9.16602C20.0681 9.19823 20.1697 9.43138 20.0742 9.60547L20.0205 9.67578L16.7383 12.9102C16.4746 13.17 16.3356 13.5276 16.3516 13.8926L16.3682 14.0488L17.123 18.5947C17.1581 18.808 16.9667 18.9762 16.7715 18.9385L16.6885 18.9102L12.5986 16.7871C12.2701 16.6167 11.887 16.5957 11.5449 16.7236L11.4014 16.7871L7.31152 18.9102C7.11961 19.0096 6.89976 18.8798 6.875 18.6826L6.87695 18.5947L7.63184 14.0488C7.69242 13.6839 7.59435 13.3132 7.36719 13.0273L7.26172 12.9102L3.97949 9.67578C3.82588 9.52409 3.881 9.27603 4.06055 9.19141L4.14551 9.16602L8.70117 8.47852C9.06717 8.42333 9.39015 8.21573 9.5918 7.91113L9.6709 7.77539L11.7314 3.6543Z" stroke="#4CB24E"/>
</svg>
