<svg width="24" height="24" viewBox="0 0 24 24" fill="none" xmlns="http://www.w3.org/2000/svg">
<path d="M16.543 2.5C19.8514 2.50004 22.4651 5.18194 22.499 8.38477C22.5293 11.3279 21.3138 13.7907 19.5674 15.8555C18.055 17.6434 16.1029 19.1847 14.1045 20.5518L13.2471 21.127C12.8753 21.3719 12.4407 21.5 12 21.5C11.5593 21.5 11.1247 21.3719 10.7529 21.127V21.126C8.46323 19.6189 6.16062 17.8984 4.43262 15.8555C2.68609 13.7906 1.47046 11.328 1.50098 8.38477C1.53484 5.18186 4.14855 2.50005 7.45703 2.5C9.49383 2.5 10.9829 3.48124 11.9102 4.37402C11.941 4.40368 11.9703 4.43428 12 4.46387C12.0297 4.43428 12.059 4.40368 12.0898 4.37402C13.0171 3.48124 14.5062 2.5 16.543 2.5ZM16.543 4.5C14.8454 4.5 13.6688 5.51985 13.0068 6.32324C12.8147 6.55647 12.6715 6.76544 12.5771 6.91406C12.5302 6.98811 12.4958 7.04698 12.4736 7.08594C12.4626 7.10541 12.454 7.12 12.4492 7.12891C12.4469 7.1332 12.4452 7.1361 12.4443 7.1377C12.3586 7.30404 12.1872 7.40918 12 7.40918C11.8362 7.40918 11.6846 7.3288 11.5918 7.19727L11.5557 7.13867V7.1377C11.5548 7.1361 11.5531 7.1332 11.5508 7.12891C11.546 7.12 11.5374 7.10541 11.5264 7.08594C11.5042 7.04698 11.4698 6.9881 11.4229 6.91406C11.3285 6.76544 11.1853 6.55647 10.9932 6.32324C10.3312 5.51985 9.15463 4.5 7.45703 4.5C5.26266 4.50005 3.5227 6.28111 3.5 8.40527C3.47581 10.7372 4.42645 12.7515 5.95996 14.5645C7.30711 16.157 9.09006 17.5766 11.0186 18.8965L11.8535 19.4561V19.457C11.8953 19.4846 11.9465 19.5 12 19.5C12.0535 19.5 12.1047 19.4846 12.1465 19.457V19.4561C14.3911 17.9785 16.5004 16.3846 18.04 14.5645C19.5736 12.7515 20.524 10.7372 20.5 8.40527C20.4773 6.28111 18.7373 4.50004 16.543 4.5Z" fill="#2B7EFE" stroke="#2B7EFE" stroke-linecap="round" stroke-linejoin="round"/>
<path d="M3 7L5 5L6.5 4L9.5 4.5L11.5 6H12.5L14.5 4.5L17 4L20 5.5L21 8.5L20 12.5L17 16.5L12 20L9.5 19L5.5 15.5L3 10.5V7Z" fill="#2B7EFE" stroke="#2B7EFE"/>
</svg>
