<svg width="14" height="10" viewBox="0 0 14 10" fill="none" xmlns="http://www.w3.org/2000/svg">
<path fill-rule="evenodd" clip-rule="evenodd" d="M1.63331 4.99996C2.53698 7.019 4.60054 8.42857 7.00002 8.42857C9.39946 8.42857 11.463 7.01903 12.3667 5.00004C11.463 2.981 9.39946 1.57143 6.99998 1.57143C4.60054 1.57143 2.53699 2.98097 1.63331 4.99996ZM13 5.00004C12.0634 2.65867 9.73009 1 6.99998 1C4.26991 1 1.93667 2.65863 1 4.99996C1.93664 7.34133 4.26991 9 7.00002 9C9.73009 9 12.0633 7.34137 13 5.00004Z" fill="white"/>
<path fill-rule="evenodd" clip-rule="evenodd" d="M7 6.71429C7.96986 6.71429 8.75608 5.94677 8.75608 5C8.75608 4.05323 7.96986 3.28571 7 3.28571C6.03015 3.28571 5.24392 4.05323 5.24392 5C5.24392 5.94677 6.03015 6.71429 7 6.71429ZM7 7.28571C8.29314 7.28571 9.34144 6.26237 9.34144 5C9.34144 3.73764 8.29314 2.71429 7 2.71429C5.70686 2.71429 4.65857 3.73764 4.65857 5C4.65857 6.26237 5.70686 7.28571 7 7.28571Z" fill="white"/>
<path fill-rule="evenodd" clip-rule="evenodd" d="M1.63331 4.99996C2.53698 7.019 4.60054 8.42857 7.00002 8.42857C9.39946 8.42857 11.463 7.01903 12.3667 5.00004C11.463 2.981 9.39946 1.57143 6.99998 1.57143C4.60054 1.57143 2.53699 2.98097 1.63331 4.99996ZM13 5.00004C12.0634 2.65867 9.73009 1 6.99998 1C4.26991 1 1.93667 2.65863 1 4.99996C1.93664 7.34133 4.26991 9 7.00002 9C9.73009 9 12.0633 7.34137 13 5.00004Z" stroke="white" stroke-width="0.5"/>
<path fill-rule="evenodd" clip-rule="evenodd" d="M7 6.71429C7.96986 6.71429 8.75608 5.94677 8.75608 5C8.75608 4.05323 7.96986 3.28571 7 3.28571C6.03015 3.28571 5.24392 4.05323 5.24392 5C5.24392 5.94677 6.03015 6.71429 7 6.71429ZM7 7.28571C8.29314 7.28571 9.34144 6.26237 9.34144 5C9.34144 3.73764 8.29314 2.71429 7 2.71429C5.70686 2.71429 4.65857 3.73764 4.65857 5C4.65857 6.26237 5.70686 7.28571 7 7.28571Z" stroke="white" stroke-width="0.5"/>
</svg>
